<svg width="147" height="61" viewBox="0 0 147 61" fill="none" xmlns="http://www.w3.org/2000/svg">
<g clip-path="url(#clip0_719_1115)">
<path d="M40.3767 27.6743C40.3609 27.7972 40.3096 27.9717 40.0533 28.0471H40.0375C39.5918 28.0947 39.1934 28.1343 38.8779 28.17C37.9747 28.2414 37.1188 28.3445 36.2944 28.4437H36.2589C34.1015 28.7014 31.873 28.9632 28.5954 28.8363C24.4816 28.6816 23.2431 28.4635 22.4227 28.3207H22.4148C21.9376 28.2335 21.5905 28.174 20.92 28.174C19.997 28.174 19.2831 28.4794 18.4588 28.8284C17.5635 29.2091 16.4512 29.685 14.5462 30.038C14.1912 30.1054 13.8204 30.1887 13.4181 30.2958H13.4063H13.3945L12.5465 30.0181C11.1621 29.566 9.02825 28.8759 6.70907 28.1621C5.64808 27.8369 4.83952 27.6306 4.16507 27.5077C3.7667 27.4046 2.70177 27.1389 1.36469 26.8652L1.34891 26.8573C1.2227 26.8097 1.14382 26.7106 1.12804 26.5797V26.5717V20.833C1.13198 9.96639 9.93936 1.12632 20.7543 1.12632C31.5693 1.12632 40.3885 9.97432 40.3885 20.8529L40.3767 27.6743ZM1.12015 33.5399V28.4635C1.18326 28.2017 1.34497 28.0669 1.58556 28.0669H1.59345H1.60529C2.73332 28.3088 3.60105 28.5269 3.92447 28.6063C4.59498 28.7292 5.37593 28.9275 6.37776 29.2369C7.9791 29.7286 9.69482 30.272 11.4776 30.851L11.5999 30.8906L11.4776 30.9382C9.78159 31.6164 8.38141 32.4612 7.54524 32.9648L7.52157 32.9767C7.23759 33.1512 6.98911 33.298 6.83528 33.3733C6.35015 33.6113 5.05645 33.7025 4.01913 33.7739H3.94025C3.45117 33.8135 2.94237 33.8492 2.52034 33.9008C2.33496 33.9246 2.11803 33.9325 1.8301 33.9325C1.73544 33.9325 1.63684 33.9325 1.5264 33.9325H1.51063C1.26214 33.9166 1.11621 33.7223 1.12015 33.5439V33.532V33.5399ZM40.3648 35.2889C40.3491 35.4832 40.1953 35.5863 40.1045 35.6061H40.0927C38.2705 35.8877 36.2747 36.435 34.9534 36.7999L34.9021 36.8157C34.275 36.9863 33.6321 37.1647 33.214 37.252C31.873 37.5336 25.7437 39.0763 24.2765 39.925C23.0932 40.6072 16.9364 41.325 13.8914 41.3686C12.2585 41.3924 10.6848 41.6185 9.65143 41.8049C8.85471 41.9477 8.34591 42.0746 8.25519 42.0984L8.14475 42.1341H8.13292C7.61623 42.0349 7.15871 41.9477 6.36198 41.8208C6.007 41.7613 5.61258 41.6899 5.23789 41.6185L5.10378 41.5947C4.26367 41.4361 2.98575 41.21 1.60529 41.0752C1.45146 41.0672 1.14382 40.9363 1.12015 40.6786V40.6706V35.4594C1.16748 35.277 1.24636 35.1025 1.49879 35.0707H1.50668C2.04704 35.0747 2.38229 35.0628 2.65444 35.0311C3.0528 34.9835 3.53794 34.9478 4.01124 34.9161H4.08618C5.34438 34.8209 6.64202 34.7336 7.32436 34.3965C7.51368 34.3053 7.79767 34.1348 8.12109 33.9365C9.42662 33.1473 11.8602 31.6799 14.7434 31.1484C16.7668 30.7717 17.9461 30.268 18.8927 29.8635H18.8966C19.6933 29.5224 20.2179 29.2963 20.9121 29.2963C21.4919 29.2963 21.7877 29.3479 22.2295 29.4272C23.0775 29.5779 24.3593 29.8 28.5441 29.9586C31.9203 30.0856 34.1922 29.8198 36.3891 29.5621L36.4443 29.5541C37.2056 29.4629 38.0693 29.3638 38.9804 29.2884C39.0041 29.2884 39.363 29.2448 39.8876 29.1972H39.8915H39.9034H39.9152C40.1164 29.1972 40.353 29.4153 40.3648 29.6136V29.6215L40.357 35.2889H40.3648ZM40.3491 45.513C40.3491 45.6756 40.215 45.9295 39.9389 45.9533H39.9192C37.9707 45.7708 35.2492 45.6399 33.3008 45.6399C32.9616 45.6399 32.6461 45.6439 32.366 45.6518C32.2832 45.6518 32.1964 45.6518 32.1057 45.6518C29.3684 45.6518 24.5644 44.6802 24.3593 44.6405C17.7725 43.3516 14.6369 43.0224 12.5622 42.8043L12.1481 42.7607C12.0258 42.7488 11.9115 42.7369 11.7971 42.721L11.3672 42.6734L11.7971 42.6258C12.5386 42.5465 13.2485 42.4989 13.9112 42.491C16.8575 42.4474 23.3457 41.7652 24.8366 40.8967C26.1066 40.163 32.0821 38.6321 33.4467 38.3506C33.8845 38.2593 34.5077 38.0888 35.2256 37.8905L35.2611 37.8826C36.5153 37.5375 38.235 37.0656 39.8797 36.784H39.8837C40.0099 36.7642 40.1282 36.7999 40.215 36.8792C40.3057 36.9625 40.3609 37.0815 40.3609 37.2044L40.3451 45.5091L40.3491 45.513ZM40.3412 48.7651C40.3412 48.888 40.2426 49.1498 39.9547 49.1815H39.9349H39.927C38.4598 49.0982 36.8664 49.0506 35.6437 49.0189C32.441 48.9356 29.1318 48.8484 26.0041 48.4042C22.6633 47.9243 21.2829 48.2376 19.3699 48.6739C18.1236 48.9555 16.5735 49.3084 13.9743 49.4988C10.7874 49.7328 5.55737 50.5022 1.80644 51.2914H1.79461C1.77094 51.2954 1.74728 51.2954 1.72361 51.2954C1.57768 51.2954 1.4278 51.2398 1.31736 51.1407C1.22664 51.0574 1.11621 50.9067 1.11621 50.6608V42.5862C1.13987 42.3443 1.28975 42.1856 1.49485 42.1856H1.50274H1.51457C2.81221 42.3125 4.00335 42.5267 4.89869 42.6972L5.05645 42.725C5.45876 42.8003 5.8374 42.8717 6.18449 42.9272C7.06405 43.07 7.62807 43.1771 8.17631 43.2842L8.26702 43.3C8.90598 43.423 9.56466 43.5459 10.6572 43.7125C11.2015 43.7958 11.7695 43.8553 12.4873 43.9306C14.5304 44.1448 17.6148 44.47 24.1424 45.747C24.1937 45.7589 29.2225 46.7821 32.1333 46.7821C32.224 46.7821 32.3108 46.7821 32.3976 46.7821C34.5117 46.7226 37.9944 46.8971 40.0099 47.0954H40.0217C40.215 47.1232 40.3451 47.262 40.3412 47.4405V47.4484V48.7691V48.7651ZM40.3294 58.3944H1.12015V52.9928C1.12804 52.8262 1.28975 52.5645 1.53429 52.5169C5.23 51.6959 10.7282 50.8631 14.061 50.6212C16.7391 50.4229 18.3405 50.062 19.6263 49.7685C21.4209 49.36 22.7146 49.0665 25.8502 49.5186C29.045 49.9747 32.3936 50.062 35.6318 50.1452C36.9728 50.1809 38.5229 50.2246 39.9744 50.3078H39.9902C40.1676 50.3316 40.3333 50.5061 40.3451 50.6806V50.6886L40.3372 58.3983L40.3294 58.3944ZM20.7543 0C9.47789 0 0.1696 9.21683 0 20.5475V59.5207H41.4456L41.5047 20.8529C41.5087 9.35563 32.2004 0 20.7543 0Z" fill="white"/>
<path d="M65.2133 37.8745C65.584 37.8745 65.6235 37.6802 65.6235 37.593C65.6235 37.5136 65.5919 37.3312 65.2843 37.2797C64.7242 37.2003 64.4915 37.0814 64.3929 36.9901C64.2548 36.8672 64.1799 36.7006 64.1602 36.4865C64.1365 36.2366 64.1286 35.3403 64.1286 33.8174C64.1286 33.0242 64.1523 32.0208 64.1957 30.8271C64.239 29.6373 64.2864 28.8124 64.3337 28.3801C64.3771 27.9795 64.4836 27.694 64.6532 27.5354C64.7715 27.4243 65.0515 27.2815 65.7378 27.2221C66.0534 27.1943 66.077 26.9841 66.077 26.9206C66.077 26.8572 66.0534 26.6549 65.7497 26.6113L62.3379 26.6034L62.2985 26.6986C60.851 30.1172 59.5533 32.8021 58.445 34.6939C58.0703 34.0474 57.7351 33.3891 57.4471 32.7307C57.1237 31.9891 56.6623 31.0452 56.0825 29.9268C55.6013 28.9948 55.0767 27.9082 54.5206 26.6946L54.4811 26.6073L51.4441 26.5399C51.3258 26.5359 51.2232 26.532 51.1364 26.532C50.7775 26.532 50.7499 26.762 50.7499 26.8334C50.7499 27.0119 50.8998 27.1189 51.1995 27.1586C51.6571 27.2141 51.9884 27.3847 52.2211 27.6742C52.4538 27.9637 52.5682 28.5348 52.5721 29.3597L52.4538 33.0996L52.4696 34.5709C52.4696 36.0423 52.2724 36.6173 52.1107 36.8394C51.8779 37.1527 51.5151 37.3153 51.0063 37.3312C50.6079 37.3431 50.5645 37.5652 50.5645 37.6604C50.5645 37.7556 50.6198 37.8468 50.7341 37.9221L50.7815 37.938L50.8327 37.9459C51.6295 37.8904 52.2881 37.8626 52.793 37.8626L53.9684 37.8706L54.5008 37.8626L54.6823 37.8706C55.0175 37.8706 55.0451 37.6485 55.0451 37.5811C55.0451 37.355 54.8479 37.244 54.4574 37.244C54.067 37.244 53.7475 37.129 53.5385 36.887C53.3925 36.7205 53.215 36.3001 53.215 35.2531L53.3294 28.5903C53.4359 28.7767 53.7002 29.2764 54.3431 30.5574C55.0096 31.882 55.5934 33.0837 56.0785 34.1307C56.9975 35.9669 57.5102 37.0695 57.6089 37.4066C57.6759 37.6247 57.7824 37.7357 57.9204 37.7357C58.0072 37.7357 58.0861 37.7 58.1492 37.6326C58.1768 37.6049 58.2163 37.5573 58.4687 36.9545L58.9854 35.6893C59.222 35.1103 59.8728 33.7619 60.922 31.6837L62.5075 28.5348L62.2709 34.4361C62.2709 35.5624 62.2354 36.2723 62.1644 36.546C62.0973 36.7958 62.0027 36.9703 61.8804 37.0576C61.7897 37.125 61.5688 37.2162 61.0245 37.2876C60.7327 37.3272 60.6972 37.5057 60.6972 37.585C60.6972 37.6921 60.7524 37.8745 61.135 37.8745L65.2211 37.8825L65.2133 37.8745Z" fill="white"/>
<path d="M66.8856 31.1485C67.0591 31.1565 67.1144 31.1961 67.1183 31.208C67.1301 31.2318 67.1617 31.3508 67.1617 31.8227C67.1617 32.485 67.1775 33.4091 67.213 34.5711C67.2485 35.7609 67.3116 36.4906 67.4062 36.8C67.5088 37.1252 67.7178 37.4028 68.0294 37.6289C68.341 37.8549 68.7275 37.966 69.1811 37.966C69.7017 37.966 70.2066 37.8192 70.6838 37.5337C71.0625 37.3076 71.4293 36.9864 71.7843 36.5779C71.7843 36.6691 71.7882 36.7445 71.7882 36.8079C71.7882 36.9745 71.7803 37.1411 71.7646 37.3037C71.7567 37.3631 71.7567 37.4187 71.7567 37.4702C71.7567 37.5852 71.804 37.851 72.2536 37.851H73.5671C73.709 37.851 74.1468 37.851 74.1468 37.5456C74.1468 37.4663 74.1113 37.2719 73.7919 37.2243C73.6065 37.2085 73.4763 37.1371 73.3935 37.0102C73.3422 36.9309 73.2555 36.677 73.2555 35.8759L73.3225 32.727C73.3225 31.9734 73.2988 31.2834 73.2476 30.6726L73.2357 30.5298H71.4293C71.1059 30.5298 71.0309 30.5536 70.9875 30.5774C70.9323 30.6052 70.8456 30.6726 70.8456 30.8352C70.8456 30.9026 70.8692 31.1168 71.1808 31.1327C71.4609 31.1525 71.6462 31.216 71.7054 31.3151C71.7409 31.3706 71.8158 31.6046 71.8158 32.5326C71.8158 34.0476 71.7685 35.0272 71.6778 35.4397C71.591 35.8323 71.3544 36.2091 70.9797 36.5581C70.3328 37.1569 69.6662 37.2561 69.1772 36.7722C68.9642 36.562 68.8419 36.3003 68.8025 35.9711C68.7591 35.6181 68.7315 34.8963 68.7196 33.8255C68.696 32.0964 68.6723 31.0335 68.6447 30.6687L68.6329 30.5259H66.9605C66.8225 30.5259 66.4083 30.5259 66.4083 30.8233C66.4083 31.0137 66.5701 31.1208 66.8856 31.1446V31.1485Z" fill="white"/>
<path d="M76.1347 37.5416C76.1623 37.494 76.2057 37.4385 76.2452 37.4385C76.257 37.4385 76.3398 37.4583 76.7106 37.6249C77.2667 37.8827 77.7558 38.0175 78.162 38.0175C78.8523 38.0175 79.4597 37.7677 79.9645 37.2759C80.4694 36.7841 80.7258 36.1853 80.7258 35.4992C80.7258 35.2017 80.6548 34.9162 80.5167 34.6425C80.3787 34.3728 80.2051 34.1547 80 33.9961C79.7989 33.8374 79.4045 33.6273 78.7892 33.3457C77.5034 32.7627 77.2785 32.6278 77.2391 32.5961C77.1602 32.5287 77.0695 32.4216 76.9709 32.2749C76.8841 32.144 76.8407 32.0012 76.8407 31.8346C76.8407 31.5729 76.9472 31.3627 77.1642 31.1961C77.3929 31.0216 77.6887 30.9344 78.0516 30.9344C78.2843 30.9344 78.5249 30.9899 78.7694 31.097C78.9982 31.2001 79.2191 31.446 79.4242 31.8346C79.6924 32.3463 79.7831 32.5683 79.8107 32.6675C79.8817 32.9015 80 33.0165 80.1578 33.0165C80.2446 33.0165 80.4536 32.9768 80.4536 32.5921C80.4536 32.2987 80.4378 31.9219 80.4023 31.4698C80.3511 30.752 80.3156 30.7044 80.288 30.6568C80.2327 30.5695 80.146 30.5219 80.0474 30.5219C79.929 30.5219 79.8383 30.625 79.7673 30.7163C79.7279 30.7718 79.7003 30.7876 79.7042 30.7916C79.6766 30.7916 79.6214 30.7797 79.5464 30.744C78.2133 30.046 77.0932 30.2086 76.2964 30.9225C75.831 31.3389 75.5944 31.8624 75.5944 32.4811C75.5944 32.8063 75.6693 33.1156 75.8192 33.3933C75.9691 33.6709 76.1821 33.8969 76.4463 34.0635C76.6987 34.2182 77.176 34.4561 77.9175 34.7893C78.9075 35.2335 79.4123 35.7371 79.4123 36.2805C79.4123 36.6295 79.2901 36.8991 79.0376 37.1014C78.7773 37.3116 78.4855 37.4147 78.1502 37.4147C77.669 37.4147 77.2549 37.2125 76.896 36.804C76.5213 36.3796 76.2254 35.8521 76.0203 35.2414C75.9454 35.0114 75.8074 34.9757 75.7285 34.9757C75.6338 34.9757 75.4129 35.0193 75.4129 35.4516C75.4248 35.5864 75.4327 35.8997 75.4366 36.3796C75.4405 36.9547 75.4524 37.3116 75.4721 37.4782C75.5037 37.7875 75.6417 37.8549 75.7521 37.8549C75.9612 37.8549 76.0953 37.6209 76.1387 37.5456L76.1347 37.5416Z" fill="white"/>
<path d="M85.4391 37.9183C85.6797 37.9183 85.7664 37.7676 85.7664 37.6287C85.7664 37.3154 85.3129 37.2916 85.163 37.2837C84.9382 37.2758 84.7725 37.2242 84.67 37.1409C84.6266 37.1052 84.5319 36.9744 84.5319 36.4945L84.5398 35.4911L84.524 32.4135L84.5319 30.3711H84.3741C84.1335 30.379 83.6997 30.4068 83.0844 30.4504C82.122 30.5218 82.0707 30.5535 82.0234 30.5813C81.9327 30.6368 81.8854 30.7241 81.8854 30.8311C81.8854 30.9699 81.98 31.1207 82.2364 31.1207C82.5835 31.1286 82.8201 31.2039 82.9266 31.3348C82.9779 31.3983 83.1002 31.6759 83.1002 32.8776L83.041 36.3438C83.041 36.9545 82.9621 37.0616 82.9503 37.0735C82.9227 37.1052 82.8201 37.1806 82.4573 37.2282C82.2798 37.252 81.8617 37.3035 81.8617 37.5891C81.8617 37.7358 81.9564 37.8945 82.2167 37.8945C82.2837 37.8945 82.3468 37.8865 82.406 37.8746C82.6702 37.831 83.1554 37.8112 83.8535 37.8112C84.2874 37.8112 84.7646 37.8429 85.2774 37.9103C85.3365 37.9183 85.3917 37.9183 85.443 37.9183H85.4391Z" fill="white"/>
<path d="M83.5025 28.1304C83.7865 28.1304 84.0152 28.0352 84.1809 27.8448C84.3426 27.6624 84.4215 27.4363 84.4215 27.1825C84.4215 26.9564 84.3229 26.7462 84.1217 26.5598C83.9284 26.3774 83.6997 26.2822 83.4512 26.2822C83.183 26.2822 82.9582 26.3695 82.7886 26.5479C82.619 26.7224 82.5322 26.9485 82.5322 27.2182C82.5322 27.4879 82.6347 27.7258 82.8398 27.8964C83.0331 28.055 83.2579 28.1343 83.5025 28.1343V28.1304Z" fill="white"/>
<path d="M92.3296 35.2731C92.227 35.2731 92.0495 35.3207 91.9943 35.6499C91.9312 36.0901 91.7261 36.451 91.3593 36.7564C90.9885 37.0657 90.606 37.2204 90.2194 37.2204C89.6199 37.2204 89.1151 36.915 88.6812 36.2884C88.2394 35.6538 88.0186 34.817 88.0186 33.8057C88.0186 32.9451 88.1763 32.2431 88.4919 31.7196C88.7956 31.216 89.3833 30.9582 89.9631 30.9582C90.5429 30.9582 91.0201 31.1009 91.3277 31.4341C91.734 31.8743 91.8129 32.1995 91.9115 32.3978C92.0259 32.6278 92.2822 32.7627 92.4085 32.5842C92.5228 32.4176 92.5504 32.2868 92.5504 32.0766C92.5504 31.5729 92.2507 31.1485 91.6078 30.7757C91.0043 30.4267 90.4403 30.3474 89.8132 30.3474C88.835 30.3474 87.991 30.7519 87.3126 31.5491C86.6381 32.3383 86.2989 33.2743 86.2989 34.3292C86.2989 35.2929 86.6302 36.1496 87.2771 36.8793C87.9318 37.613 88.7522 37.9858 89.7146 37.9858C90.5941 37.9858 91.308 37.728 91.8365 37.2243C92.369 36.7167 92.6372 36.1615 92.6372 35.5745C92.6372 35.3881 92.5189 35.2691 92.3335 35.2691L92.3296 35.2731Z" fill="white"/>
<path d="M100.821 37.2798C100.597 37.2719 100.431 37.2203 100.328 37.137C100.285 37.1013 100.19 36.9705 100.19 36.4906L100.198 35.4872L100.182 32.4096L100.19 30.3672H100.033C99.792 30.3751 99.3581 30.4029 98.7428 30.4465C97.7804 30.5179 97.7292 30.5496 97.6818 30.5774C97.5911 30.6329 97.5438 30.7202 97.5438 30.8272C97.5438 30.966 97.6385 31.1167 97.8948 31.1167C98.2419 31.1247 98.4786 31.2 98.5851 31.3309C98.6363 31.3944 98.7586 31.672 98.7586 32.8737L98.6994 36.3399C98.6994 36.9506 98.6206 37.0577 98.6087 37.0696C98.5811 37.1013 98.4786 37.1767 98.1157 37.2243C97.9382 37.2481 97.5201 37.2996 97.5201 37.5852C97.5201 37.7319 97.6148 37.8906 97.8751 37.8906C97.9422 37.8906 98.0053 37.8826 98.0644 37.8707C98.3287 37.8271 98.8138 37.8073 99.5119 37.8073C99.9458 37.8073 100.423 37.839 100.936 37.9064C100.995 37.9144 101.05 37.9144 101.101 37.9144C101.342 37.9144 101.429 37.7637 101.429 37.6248C101.429 37.3115 100.975 37.2877 100.825 37.2798H100.821Z" fill="white"/>
<path d="M99.1609 28.1304C99.4449 28.1304 99.6736 28.0352 99.8393 27.8448C100.001 27.6624 100.08 27.4363 100.08 27.1825C100.08 26.9564 99.9813 26.7462 99.7801 26.5598C99.5869 26.3774 99.3581 26.2822 99.1096 26.2822C98.8414 26.2822 98.6166 26.3695 98.447 26.5479C98.2774 26.7224 98.1906 26.9485 98.1906 27.2182C98.1906 27.4879 98.2932 27.7258 98.4983 27.8964C98.6915 28.055 98.9164 28.1343 99.1609 28.1343V28.1304Z" fill="white"/>
<path d="M104.797 37.8826L105.239 37.9183C105.558 37.9183 105.574 37.6922 105.574 37.6446C105.574 37.5772 105.55 37.3591 105.255 37.3313C104.923 37.2916 104.718 37.1965 104.647 37.0458C104.588 36.9228 104.517 36.5857 104.517 35.6854C104.517 34.0753 104.726 32.9172 105.14 32.2391C105.543 31.5767 106.032 31.2555 106.627 31.2555C107.018 31.2555 107.337 31.426 107.601 31.779C107.874 32.1399 108.012 32.8974 108.012 34.0317C108.012 34.456 108 35.0152 107.976 35.6973C107.945 36.5738 107.909 36.8038 107.889 36.8633C107.862 36.9545 107.811 37.022 107.743 37.0775C107.7 37.1092 107.574 37.1766 107.207 37.256C106.947 37.3075 106.915 37.4741 106.915 37.5415C106.915 37.6526 106.974 37.8389 107.388 37.8389C107.897 37.7993 108.382 37.7795 108.824 37.7795C109.309 37.7795 109.68 37.8033 109.936 37.8548C109.98 37.8627 110.027 37.8627 110.074 37.8627C110.252 37.8627 110.37 37.7517 110.37 37.5812C110.37 37.363 110.086 37.2837 109.964 37.248C109.66 37.1647 109.542 37.0656 109.499 36.9982C109.467 36.9506 109.396 36.7681 109.396 36.1138L109.447 33.294C109.447 32.4254 109.349 31.8187 109.14 31.4419C108.931 31.0651 108.631 30.7915 108.248 30.6368C107.392 30.2918 106.422 30.3394 105.645 30.847C105.314 31.0651 105.002 31.3665 104.714 31.7473C104.675 31.1801 104.6 30.7637 104.486 30.4861L104.446 30.387H104.34C103.665 30.4068 103.29 30.4147 103.223 30.4147L102.549 30.4068C102.186 30.4068 102.147 30.613 102.147 30.7042C102.147 30.962 102.482 31.0374 102.588 31.0651C102.786 31.1127 102.935 31.2317 103.046 31.434C103.129 31.5807 103.227 32.009 103.227 33.2028C103.227 34.2537 103.212 35.1461 103.184 35.852C103.145 36.7959 103.058 36.9863 103.034 37.022C102.971 37.1132 102.825 37.1806 102.62 37.2242C102.478 37.252 102.099 37.3234 102.099 37.5931C102.099 37.7834 102.273 37.8826 102.624 37.8826L103.283 37.8667C104.142 37.8667 104.655 37.8707 104.805 37.8826H104.797Z" fill="white"/>
<path d="M59.364 45.9334C58.729 45.3543 57.5418 45.0728 55.7432 45.0728L53.1006 45.0886L51.452 45.0807C51.0891 45.0807 51.0497 45.2869 51.0497 45.3781C51.0497 45.6161 51.3731 45.7073 51.7241 45.7747C52.016 45.8263 52.2014 45.9453 52.296 46.1396C52.367 46.2863 52.4538 46.679 52.4538 47.7022L52.4301 50.1135L52.4538 52.3423C52.4538 53.1038 52.438 53.7859 52.4025 54.3689C52.3631 55.055 52.2526 55.3247 52.1659 55.4278C52.0397 55.5785 51.803 55.6618 51.4875 55.7927C51.3573 55.8482 51.0378 55.8601 51.0378 56.1218C51.0378 56.2368 51.093 56.3281 51.1877 56.3757C51.235 56.3955 51.2824 56.4193 52.2803 56.4193L54.5679 56.4272C55.2581 56.4272 55.4159 56.4153 55.475 56.4034C55.6249 56.3757 55.7196 56.2646 55.7196 56.1139C55.7196 55.9196 55.5421 55.8085 55.1911 55.7847C54.9938 55.7768 54.8124 55.7094 54.6389 55.5785C54.4693 55.4516 54.3549 55.3247 54.3076 55.1978C54.2721 55.1026 54.2247 54.8289 54.2011 54.0715C54.1813 53.4448 54.1735 53.0403 54.1735 52.8499C54.1735 52.6041 54.1814 52.3582 54.1971 52.1163C54.2247 51.7117 54.2405 51.3865 54.2445 51.1406C54.6862 51.1684 55.0806 51.1803 55.4238 51.1803C57.0251 51.1803 58.2478 50.9265 59.0564 50.4228C59.8886 49.9033 60.3106 49.122 60.3106 48.0948C60.3106 47.2342 59.9911 46.5084 59.3561 45.9334H59.364ZM58.0388 49.2766C57.8258 49.7486 57.4945 50.0698 57.0291 50.2483C56.5518 50.4347 56.0312 50.5299 55.4869 50.5299C55.3843 50.5299 54.9702 50.518 54.2484 50.4942C54.2484 50.3157 54.2445 50.1888 54.2445 50.1135L54.276 48.0631L54.2445 46.1436C54.2445 46.1039 54.2445 46.0206 54.2484 45.8858C54.6349 45.7866 55.0885 45.739 55.5934 45.739C56.6504 45.739 57.384 45.9453 57.7745 46.3498C58.1729 46.7622 58.3661 47.25 58.3661 47.841C58.3661 48.3129 58.2557 48.7968 58.0348 49.2806L58.0388 49.2766Z" fill="white"/>
<path d="M72.088 48.9317C71.2479 48.9317 70.4551 49.3164 69.7254 50.0739C68.9997 50.8314 68.6289 51.7872 68.6289 52.9175C68.6289 53.9764 68.9642 54.8608 69.6307 55.5548C70.2973 56.2488 71.1216 56.6018 72.0801 56.6018C72.7309 56.6018 73.3265 56.459 73.8589 56.1814C74.3953 55.8998 74.7819 55.5469 75.0067 55.1304L75.0264 55.0948V55.0511C75.0106 54.7101 74.7937 54.6863 74.7306 54.6863C74.6478 54.6863 74.557 54.7299 74.3086 54.952C73.7682 55.4557 73.1766 55.7134 72.5534 55.7134C71.9302 55.7134 71.3859 55.4636 70.9481 54.948C70.5103 54.4324 70.2894 53.79 70.2894 53.0404C70.2894 52.9056 70.2973 52.7271 70.3131 52.5169L74.3362 52.4534C74.8962 52.4534 75.0382 52.3979 75.1013 52.2988C75.1566 52.2155 75.1802 52.1044 75.1802 51.9537C75.1802 51.1447 74.8568 50.4269 74.2257 49.828C73.5947 49.2331 72.8768 48.9277 72.0919 48.9277L72.088 48.9317ZM73.5868 51.1288C73.5868 51.3787 73.5237 51.5413 73.3896 51.6325C73.2357 51.7356 73.007 51.7911 72.6993 51.803L72.2655 51.8268C71.6462 51.8268 70.9994 51.811 70.3407 51.7832C70.463 51.0059 70.6996 50.4348 71.0428 50.0858C71.4096 49.717 71.7764 49.5345 72.1314 49.5345C72.5218 49.5345 72.8571 49.6892 73.149 50.0065C73.4448 50.3277 73.5868 50.6965 73.5868 51.1288Z" fill="white"/>
<path d="M79.9133 48.9158C78.8483 48.9158 77.9372 49.3085 77.2075 50.0818C76.4779 50.8552 76.1071 51.7634 76.1071 52.7786C76.1071 53.7939 76.4739 54.718 77.1918 55.4477C77.9136 56.1814 78.7852 56.5502 79.787 56.5502C80.7889 56.5502 81.7 56.1497 82.4612 55.3525C83.2185 54.5594 83.6011 53.6274 83.6011 52.5764C83.6011 51.5254 83.2343 50.6529 82.5085 49.9589C81.7868 49.2648 80.9111 48.9119 79.9093 48.9119L79.9133 48.9158ZM79.9054 55.9157C79.3059 55.9157 78.8089 55.6262 78.3947 55.0273C77.9727 54.4205 77.7597 53.6472 77.7597 52.7271C77.7597 51.807 77.9569 51.0416 78.3514 50.4427C78.7339 49.8558 79.2112 49.5742 79.8028 49.5742C80.4457 49.5742 80.9585 49.8875 81.3647 50.5339C81.7828 51.1923 81.9918 51.9577 81.9918 52.8024C81.9918 53.7503 81.7749 54.5157 81.345 55.0829C80.919 55.6421 80.4457 55.9157 79.8975 55.9157H79.9054Z" fill="white"/>
<path d="M92.1126 55.8125C91.8089 55.7292 91.6906 55.63 91.6472 55.5626C91.6157 55.515 91.5447 55.3326 91.5447 54.6782L91.5959 51.8584C91.5959 50.9899 91.4973 50.3831 91.2883 50.0064C91.0793 49.6296 90.7795 49.3559 90.3969 49.2013C89.541 48.8562 88.5708 48.9038 87.7937 49.4115C87.4624 49.6296 87.1508 49.931 86.8629 50.3117C86.8235 49.7446 86.7485 49.3282 86.6342 49.0506L86.5947 48.9514H86.4882C85.8138 48.9712 85.4391 48.9792 85.372 48.9792L84.6976 48.9712C84.3347 48.9712 84.2953 49.1775 84.2953 49.2687C84.2953 49.5265 84.6305 49.6018 84.737 49.6296C84.9342 49.6772 85.0841 49.7962 85.1945 49.9984C85.2774 50.1452 85.376 50.5735 85.376 51.7672C85.376 52.8182 85.3602 53.7105 85.3326 54.4165C85.2931 55.3604 85.2064 55.5507 85.1827 55.5864C85.1196 55.6776 84.9737 55.7451 84.7686 55.7887C84.6266 55.8164 84.2479 55.8878 84.2479 56.1575C84.2479 56.3479 84.4215 56.447 84.7725 56.447L85.4312 56.4312C86.291 56.4312 86.8038 56.4351 86.9536 56.447L87.3954 56.4827C87.7149 56.4827 87.7306 56.2567 87.7306 56.2091C87.7306 56.1416 87.707 55.9235 87.4112 55.8958C87.0798 55.8601 86.8748 55.7609 86.8038 55.6102C86.7446 55.4873 86.6736 55.1502 86.6736 54.2499C86.6736 52.6397 86.8826 51.4817 87.2968 50.8035C87.6991 50.1412 88.1882 49.82 88.7837 49.82C89.1742 49.82 89.4937 49.9905 89.758 50.3435C90.0301 50.7044 90.1682 51.4618 90.1682 52.5961C90.1682 53.0205 90.1563 53.5836 90.1327 54.2618C90.1011 55.1383 90.0656 55.3683 90.0459 55.4278C90.0183 55.519 89.967 55.5864 89.8999 55.6419C89.8566 55.6737 89.7304 55.7411 89.3635 55.8204C89.1032 55.872 89.0717 56.0385 89.0717 56.106C89.0717 56.217 89.1308 56.4034 89.545 56.4034C90.0538 56.3637 90.5389 56.3439 90.9807 56.3439C91.4697 56.3439 91.8405 56.3677 92.0929 56.4193C92.1363 56.4272 92.1836 56.4272 92.231 56.4272C92.4085 56.4272 92.5268 56.3162 92.5268 56.1456C92.5268 55.9275 92.2428 55.8482 92.1205 55.8125H92.1126Z" fill="white"/>
<path d="M120.886 55.8681C120.779 55.8641 120.669 55.8165 120.554 55.7253C120.444 55.638 120.389 55.5468 120.377 55.4358C120.361 55.293 120.353 54.8647 120.353 54.1667L120.404 51.9458C120.404 50.8234 120.199 50.058 119.777 49.6059C119.359 49.1577 118.752 48.9277 117.979 48.9277C117.131 48.9277 116.377 49.2688 115.73 49.939C115.723 49.6654 115.719 49.356 115.719 49.007L115.746 44.6802L115.581 44.6921C114.961 44.7317 114.374 44.7516 113.833 44.7516C113.332 44.7516 113.289 44.7635 113.261 44.7674C113.155 44.7912 113.088 44.8824 113.088 44.9974C113.088 45.1085 113.151 45.2513 113.447 45.3147C113.66 45.3544 113.837 45.5051 113.991 45.7708C114.153 46.0524 114.247 46.5204 114.267 47.1668C114.287 47.841 114.295 49.2807 114.295 51.4461C114.295 52.6557 114.263 53.663 114.196 54.4364C114.105 55.5072 114.007 55.6777 113.987 55.7015C113.94 55.761 113.825 55.8363 113.545 55.872C113.242 55.9077 113.21 56.0902 113.21 56.1695C113.21 56.2567 113.25 56.459 113.624 56.459C113.885 56.4431 114.2 56.4352 114.551 56.4352L116.235 56.4669C116.496 56.4669 116.59 56.3162 116.59 56.1774C116.59 56.0862 116.547 55.9196 116.259 55.876C115.979 55.8205 115.813 55.7134 115.758 55.5587C115.711 55.4239 115.659 55.0907 115.659 54.2539C115.659 53.2426 115.691 52.3741 115.758 51.6761C115.821 51.0098 116.022 50.4982 116.358 50.1611C116.693 49.824 117.071 49.6574 117.509 49.6574C117.947 49.6574 118.29 49.8478 118.558 50.2404C118.835 50.6449 118.977 51.5888 118.977 53.0443C118.977 54.7497 118.921 55.3049 118.874 55.4754C118.854 55.5468 118.795 55.765 118.302 55.8284C118.01 55.8681 117.979 56.0465 117.979 56.1259C117.979 56.1972 118.002 56.3638 118.274 56.4233H120.736C121.166 56.4233 121.256 56.2567 121.256 56.1179C121.256 56.0227 121.209 55.8641 120.886 55.8641V55.8681Z" fill="white"/>
<path d="M128.691 55.7332L128.541 55.7531C128.45 55.7689 128.383 55.7768 128.332 55.7768C128.202 55.7768 128.021 55.7332 127.91 55.3485C127.812 55.0035 127.76 54.4046 127.76 53.5718L127.812 51.3548C127.812 50.6568 127.76 50.1928 127.654 49.939C127.543 49.6693 127.275 49.4314 126.861 49.2331C126.463 49.0427 125.926 48.9475 125.268 48.9475C124.435 48.9475 123.769 49.1141 123.284 49.4393C122.779 49.7764 122.526 50.1888 122.526 50.6608C122.526 50.9463 122.621 51.1724 122.802 51.3231C122.976 51.4698 123.146 51.5452 123.303 51.5452C123.591 51.5452 123.966 51.3905 124.112 50.6489C124.222 50.1056 124.368 49.8795 124.471 49.7843C124.621 49.6534 124.849 49.586 125.161 49.586C125.544 49.586 125.832 49.705 126.033 49.9469C126.242 50.1928 126.344 50.5497 126.344 51.0098C126.344 51.2874 126.269 51.5016 126.119 51.6681C126.013 51.7871 125.658 52.0052 124.585 52.3622C123.95 52.5803 123.516 52.7548 123.256 52.9015C122.988 53.0522 122.747 53.3021 122.542 53.6432C122.337 53.9842 122.234 54.357 122.234 54.7536C122.234 55.2851 122.412 55.7253 122.763 56.0545C123.11 56.3836 123.587 56.5502 124.187 56.5502C124.688 56.5502 125.141 56.4431 125.54 56.2369C125.824 56.0862 126.084 55.88 126.313 55.6222C126.344 55.9038 126.403 56.0981 126.494 56.225C126.632 56.4154 126.889 56.5105 127.255 56.5105C128.545 56.5105 129.05 56.3757 129.05 56.0346C129.05 55.8919 128.967 55.757 128.687 55.7412L128.691 55.7332ZM126.352 53.4449C126.352 54.0239 126.289 54.4602 126.163 54.7457C126.041 55.0233 125.847 55.2573 125.587 55.4397C125.327 55.6222 125.058 55.7094 124.767 55.7094C124.502 55.7094 124.285 55.6063 124.104 55.3961C123.919 55.178 123.828 54.9162 123.828 54.6029C123.828 54.25 123.938 53.9565 124.167 53.7066C124.408 53.4488 124.818 53.1673 125.382 52.8738C125.788 52.6596 126.096 52.4653 126.309 52.2908C126.332 52.7072 126.344 53.0959 126.344 53.4488L126.352 53.4449Z" fill="white"/>
<path d="M137.546 55.8125C137.242 55.7292 137.124 55.63 137.08 55.5626C137.049 55.515 136.978 55.3326 136.978 54.6782L137.029 51.8584C137.029 50.9899 136.93 50.3831 136.721 50.0064C136.512 49.6296 136.213 49.3559 135.83 49.2013C134.974 48.8562 134.004 48.9038 133.227 49.4115C132.896 49.6296 132.584 49.931 132.296 50.3117C132.257 49.7446 132.182 49.3282 132.067 49.0506L132.028 48.9514H131.921C131.247 48.9712 130.872 48.9792 130.805 48.9792L130.131 48.9712C129.768 48.9712 129.728 49.1775 129.728 49.2687C129.728 49.5265 130.064 49.6018 130.17 49.6296C130.367 49.6772 130.517 49.7962 130.628 49.9984C130.71 50.1452 130.809 50.5735 130.809 51.7672C130.809 52.8182 130.793 53.7105 130.766 54.4165C130.726 55.3604 130.639 55.5507 130.616 55.5864C130.553 55.6776 130.407 55.7451 130.202 55.7887C130.06 55.8164 129.681 55.8878 129.681 56.1575C129.681 56.3479 129.855 56.447 130.206 56.447L130.864 56.4312C131.724 56.4312 132.237 56.4351 132.387 56.447L132.829 56.4827C133.148 56.4827 133.164 56.2567 133.164 56.2091C133.164 56.1416 133.14 55.9235 132.844 55.8958C132.513 55.8601 132.308 55.7609 132.237 55.6102C132.178 55.4873 132.107 55.1502 132.107 54.2499C132.107 52.6397 132.316 51.4817 132.73 50.8035C133.132 50.1412 133.621 49.82 134.217 49.82C134.607 49.82 134.927 49.9905 135.191 50.3435C135.463 50.7044 135.601 51.4618 135.601 52.5961C135.601 53.0205 135.589 53.5836 135.566 54.2618C135.534 55.1383 135.499 55.3683 135.479 55.4278C135.451 55.519 135.4 55.5864 135.333 55.6419C135.29 55.6737 135.163 55.7411 134.797 55.8204C134.536 55.872 134.505 56.0385 134.505 56.106C134.505 56.217 134.564 56.4034 134.978 56.4034C135.487 56.3637 135.972 56.3439 136.414 56.3439C136.903 56.3439 137.274 56.3677 137.526 56.4193C137.569 56.4272 137.617 56.4272 137.664 56.4272C137.842 56.4272 137.96 56.3162 137.96 56.1456C137.96 55.9275 137.676 55.8482 137.554 55.8125H137.546Z" fill="white"/>
<path d="M68.8261 49.3045C68.8261 49.1618 68.7315 49.0071 68.4712 49.0071C68.4199 49.0071 68.3331 49.011 68.2266 49.0229C67.9781 49.0467 67.4812 49.0547 66.7554 49.0547C66.5227 49.0547 66.3452 49.0547 66.2427 49.0467C65.9824 49.0309 65.8285 49.0229 65.7852 49.0229C65.4696 49.0229 65.446 49.2411 65.446 49.3085C65.446 49.3918 65.4815 49.5901 65.8246 49.6297C66.4715 49.6853 66.5543 49.9906 66.5543 50.2524C66.5543 50.5855 66.3334 51.109 66.1086 51.6167C65.864 52.164 65.446 53.1792 64.9253 54.4761L64.9056 54.5277L64.8819 54.4761C63.7618 51.8269 63.1978 50.3753 63.1978 50.1612C63.1978 49.9113 63.2569 49.7884 63.6159 49.6932C63.8328 49.6377 64.101 49.5702 64.101 49.3482C64.101 49.2569 64.0616 49.0388 63.7145 49.0388H63.7066C63.6592 49.0388 63.5922 49.0388 63.4896 49.0428C63.253 49.0626 62.7679 49.0705 62.0066 49.0705C61.7542 49.0705 61.5609 49.0626 61.3835 49.0586H61.3361C61.2257 49.0547 61.1113 49.0507 60.9851 49.0467C60.8904 49.0467 60.8076 49.0467 60.7484 49.0467C60.6301 49.0467 60.4132 49.0467 60.4132 49.3085C60.4132 49.4116 60.4645 49.5861 60.8155 49.6297C60.9535 49.6496 61.0482 49.717 61.2217 49.9153C61.3322 50.0382 61.5807 50.4665 62.1486 51.807C62.618 52.9056 63.044 53.9328 63.4186 54.8608C63.817 55.8443 63.9353 56.2409 63.9353 56.5701C63.9353 56.8993 63.6987 57.6171 63.3634 58.3072L62.8112 59.382C62.7324 59.493 62.4918 59.5525 62.2946 59.5525C62.2827 59.5525 62.2709 59.5525 62.2591 59.5525C62.2275 59.5525 62.196 59.5525 62.1644 59.5525C62.0619 59.5525 61.9672 59.5604 61.8844 59.5803C61.6477 59.6318 61.3006 59.8539 61.3125 60.2386C61.3243 60.7105 61.6122 60.9683 62.1171 60.9683C62.7087 60.9683 63.1347 60.6471 63.3871 60.0165L64.0655 58.565C64.097 58.4936 64.1365 58.4143 64.1365 58.4024C64.3534 57.8987 64.6216 57.2245 64.9017 56.5106C65.1659 55.8364 65.4539 55.1106 65.7773 54.3135C66.432 52.7073 66.9803 51.5849 67.3037 50.9187L67.3668 50.7878C67.422 50.6767 67.4693 50.5776 67.5088 50.4943C67.7336 50.0184 68.0649 49.7289 68.4909 49.6337C68.7867 49.5663 68.8301 49.3997 68.8301 49.3085L68.8261 49.3045Z" fill="white"/>
<path d="M112.512 53.2306C112.283 53.2306 112.157 53.4844 112.114 53.5717C111.806 54.1705 111.345 54.7059 110.741 55.162C110.209 55.5666 109.581 55.753 108.773 55.753C107.617 55.753 106.686 55.2413 105.902 54.349C105.042 53.3694 104.608 52.0765 104.608 50.5021C104.608 49.574 104.679 48.6658 105.014 47.8647C105.251 47.2976 105.59 46.6154 106.229 46.1197C106.781 45.6914 107.558 45.4177 108.209 45.4177C108.982 45.4177 110.106 45.6517 110.761 46.1673C111.258 46.556 111.636 46.9724 111.995 47.8449L112.054 47.9877C112.125 48.1701 112.189 48.3406 112.366 48.3406C112.504 48.3406 112.603 48.2494 112.634 48.1622C112.662 48.0828 112.693 47.7933 112.701 47.595C112.701 47.5871 112.753 47.0874 112.54 46.663C112.37 46.322 111.995 46.0285 111.617 45.7628H111.609C111.104 45.4495 110.485 45.1124 109.708 44.9339C109.144 44.803 108.607 44.7356 108.106 44.7356C107.148 44.7356 106.205 44.9973 105.302 45.509C104.47 45.9849 103.819 46.5163 103.263 47.5554C102.766 48.4794 102.513 49.5344 102.513 50.6845C102.513 51.8346 102.774 52.8975 103.287 53.774C103.847 54.7297 104.537 55.4476 105.341 55.9037C106.233 56.4113 107.112 56.7127 108.087 56.7127C108.911 56.7127 109.696 56.5303 110.418 56.1733C111.135 55.8164 111.727 55.3445 112.169 54.7694C112.768 53.996 112.847 53.7383 112.847 53.5876C112.847 53.3615 112.721 53.2306 112.508 53.2306H112.512Z" fill="white"/>
<path d="M99.437 55.9792C99.011 55.9158 98.1946 55.8602 96.9364 55.8127C95.9188 55.7809 95.5007 55.6857 95.3311 55.6144C95.055 55.4993 95.0234 55.3407 95.0234 55.2336C95.0234 55.1266 95.0944 54.9996 95.2325 54.8688C95.3863 54.73 95.5559 54.6348 95.7373 54.5872C95.9385 54.5356 96.325 54.488 96.8851 54.4444C97.808 54.373 98.5298 54.0676 99.0307 53.5362C99.5277 53.0008 99.7801 52.3464 99.7801 51.5929C99.7801 51.4501 99.7683 51.3113 99.7407 51.1487C99.717 50.9623 99.6736 50.8037 99.6381 50.6887L99.6303 50.6609C99.6184 50.6094 99.6026 50.5578 99.5948 50.5221V50.5023L99.6105 50.4943C99.6421 50.4824 99.6973 50.4745 99.7841 50.4626L99.8511 50.4547C99.9773 50.4428 100.056 50.4349 100.427 50.4349L100.541 50.4269C100.845 50.4269 101.058 50.2683 101.058 50.0422C101.058 49.8162 100.952 49.5623 100.447 49.5623L99.224 49.483C98.8217 49.4275 98.6205 49.3442 98.4076 49.2609C98.2932 49.2133 98.1827 49.1697 98.0447 49.1301C98.0368 49.1301 98.0289 49.1261 98.025 49.1261C97.6779 49.0032 97.3111 48.9397 96.9206 48.9397C95.9977 48.9397 95.2207 49.2411 94.6172 49.84C94.0137 50.4388 93.7061 51.1487 93.7061 51.9498C93.7061 52.513 93.8796 53.0087 94.2267 53.4291C94.4713 53.7266 94.7789 53.9606 95.1378 54.1311L95.1852 54.1549L95.1339 54.1747C94.7395 54.3334 94.42 54.5198 94.1912 54.73C93.8638 55.0314 93.6982 55.3843 93.6982 55.7849C93.6982 56.1855 93.8639 56.4948 94.1873 56.7169C94.3963 56.8597 94.6961 56.9786 95.1063 57.0778L95.1773 57.0937L95.1102 57.1214C93.7929 57.6608 93.1223 58.3469 93.1223 59.1718C93.1223 59.7826 93.4221 60.2426 94.0137 60.548C94.5817 60.8415 95.3981 60.9842 96.5104 60.9842C97.9895 60.9842 99.1293 60.7066 99.8945 60.1593C100.675 59.6041 101.074 58.8664 101.074 57.9701C101.074 57.4189 100.912 56.9628 100.589 56.6098C100.269 56.2608 99.8787 56.0466 99.4291 55.9753L99.437 55.9792ZM95.7492 50.1017C96.0174 49.7368 96.3566 49.5623 96.7826 49.5623C97.1612 49.5623 97.4767 49.7448 97.7449 50.1215C98.021 50.5102 98.1591 51.0734 98.1591 51.7952C98.1591 52.517 98.021 53.0087 97.7489 53.3379L97.741 53.3458C97.4728 53.6631 97.1849 53.8178 96.8575 53.8178C96.4946 53.8178 96.1554 53.6592 95.8241 53.3379C95.4967 53.0206 95.3311 52.4654 95.3311 51.6841C95.3311 51.006 95.4691 50.4745 95.7452 50.1017H95.7492ZM99.1293 59.735C98.6363 60.1474 97.8633 60.3576 96.8259 60.3576C96.1436 60.3576 95.5717 60.2307 95.122 59.9848C94.6961 59.7508 94.491 59.4256 94.491 58.9894C94.491 58.6562 94.5935 58.3786 94.8065 58.1407C95.0274 57.8948 95.3745 57.6766 95.8438 57.4982C96.3171 57.3157 96.8417 57.2245 97.3978 57.2245C98.238 57.2245 98.8769 57.3316 99.2871 57.5418C99.6697 57.7401 99.8551 58.0256 99.8551 58.4143C99.8551 58.8902 99.6184 59.3225 99.1254 59.735H99.1293Z" fill="white"/>
<path d="M146.038 56.6296C145.718 56.2806 145.328 56.0665 144.878 55.9951C144.452 55.9316 143.636 55.8761 142.377 55.8285C141.36 55.7968 140.942 55.7016 140.772 55.6302C140.496 55.5152 140.464 55.3566 140.464 55.2495C140.464 55.1424 140.535 55.0155 140.673 54.8846C140.827 54.7458 140.997 54.6506 141.178 54.603C141.38 54.5515 141.766 54.5039 142.326 54.4603C143.249 54.3889 143.971 54.0835 144.472 53.5521C144.969 53.0167 145.221 52.3623 145.221 51.6088C145.221 51.466 145.209 51.3272 145.182 51.1646C145.158 50.9782 145.115 50.8196 145.079 50.7045L145.071 50.6768C145.059 50.6252 145.044 50.5737 145.036 50.538V50.5181L145.052 50.5102C145.083 50.4983 145.138 50.4904 145.225 50.4785L145.292 50.4706C145.418 50.4587 145.497 50.4507 145.868 50.4507L145.982 50.4428C146.286 50.4428 146.499 50.2842 146.499 50.0581C146.499 49.832 146.393 49.5782 145.888 49.5782L144.665 49.4989C144.263 49.4434 144.062 49.3601 143.849 49.2768C143.734 49.2292 143.624 49.1856 143.486 49.1459C143.478 49.1459 143.47 49.142 143.466 49.142C143.119 49.019 142.752 48.9556 142.362 48.9556C141.439 48.9556 140.662 49.257 140.058 49.8558C139.455 50.4547 139.147 51.1646 139.147 51.9657C139.147 52.5289 139.321 53.0246 139.668 53.445C139.912 53.7424 140.22 53.9764 140.579 54.147L140.626 54.1708L140.575 54.1906C140.18 54.3492 139.861 54.5356 139.632 54.7458C139.305 55.0472 139.139 55.4002 139.139 55.8008C139.139 56.2013 139.305 56.5107 139.628 56.7328C139.837 56.8755 140.137 56.9945 140.547 57.0937L140.618 57.1095L140.551 57.1373C139.234 57.6767 138.563 58.3628 138.563 59.1877C138.563 59.7984 138.863 60.2585 139.455 60.5639C140.023 60.8573 140.839 61.0001 141.951 61.0001C143.43 61.0001 144.57 60.7225 145.336 60.1752C146.116 59.62 146.515 58.8823 146.515 57.986C146.515 57.4347 146.353 56.9786 146.03 56.6257L146.038 56.6296ZM141.19 50.1176C141.458 49.7527 141.798 49.5782 142.224 49.5782C142.602 49.5782 142.918 49.7606 143.186 50.1374C143.462 50.5261 143.6 51.0892 143.6 51.811C143.6 52.5328 143.462 53.0246 143.19 53.3538L143.182 53.3617C142.914 53.679 142.626 53.8337 142.299 53.8337C141.936 53.8337 141.596 53.675 141.265 53.3538C140.938 53.0365 140.772 52.4813 140.772 51.7C140.772 51.0218 140.91 50.4904 141.186 50.1176H141.19ZM144.57 59.7508C144.077 60.1633 143.304 60.3735 142.267 60.3735C141.585 60.3735 141.013 60.2466 140.563 60.0007C140.137 59.7667 139.932 59.4415 139.932 59.0052C139.932 58.6721 140.035 58.3945 140.248 58.1565C140.468 57.9106 140.815 57.6925 141.285 57.514C141.758 57.3316 142.283 57.2404 142.839 57.2404C143.679 57.2404 144.318 57.3475 144.728 57.5577C145.111 57.756 145.296 58.0415 145.296 58.4302C145.296 58.9061 145.059 59.3384 144.566 59.7508H144.57Z" fill="white"/>
<path d="M63.0163 4.74738C62.263 4.50149 61.4387 4.34682 60.9693 4.36269C60.6262 4.37458 60.3382 4.46184 60.2436 4.57685C60.2239 4.60064 60.216 4.62444 60.2199 4.64427C60.2278 4.676 60.4053 4.75928 60.4605 4.78308L60.4842 4.79497C60.5197 4.81084 60.5552 4.8267 60.5867 4.84257L60.7879 4.94964C61.5136 5.33434 62.1959 5.69524 62.1959 6.44084V12.4096H60.3816V12.3025L60.3619 7.12694C60.3619 6.93261 60.3895 6.77001 60.4132 6.62723L60.4211 6.57568C60.496 6.15132 60.5315 5.94113 59.3798 5.58023C58.5318 5.31451 58.094 5.23519 57.5891 5.25106C57.2894 5.26295 57.0685 5.33037 56.9817 5.43349C56.9541 5.46522 56.9462 5.49694 56.9541 5.53264C56.9581 5.56833 57.1356 5.65162 57.2223 5.69127C57.2539 5.70317 57.2775 5.71904 57.3012 5.72697L57.4748 5.81422C58.2518 6.21081 58.6817 6.42894 58.6817 7.19833V13.7461L58.6146 13.7738C56.7609 14.5075 55.4159 14.8764 53.9684 15.0429C53.8264 15.0628 53.708 15.031 53.6213 14.9557C53.5148 14.8605 53.4635 14.7058 53.4635 14.4758V8.95524H53.5661L56.5715 8.84023C56.9896 8.82436 57.1592 8.56658 57.1789 8.33259C57.1947 8.13032 57.0961 7.89237 56.8871 7.84874L56.8476 7.84081C56.4177 7.75356 56.256 7.72183 55.621 7.75753C55.479 7.76546 55.3962 7.82098 55.2818 7.9003C55.1043 8.02324 54.7296 8.19378 54.3864 8.27706C54.2957 8.29689 54.0039 8.38018 53.1914 8.31276L53.1598 8.30482C52.4262 7.93599 50.9274 7.93203 50.5054 8.08273C50.3239 8.14619 50.1267 8.28499 50.1188 8.38811C50.1188 8.4238 50.1464 8.46346 50.2135 8.49916C50.32 8.56261 50.4383 8.60624 50.5645 8.65383L50.5843 8.66176C50.7144 8.70935 50.8406 8.76091 50.9826 8.82833C51.4638 9.07025 51.6886 9.41925 51.6886 9.92689L51.6689 14.1744C51.661 15.0747 51.8385 15.7013 52.2014 16.0265C52.5682 16.3596 53.0651 16.3517 53.4517 16.312C55.3212 15.9194 57.3446 15.0191 58.5239 14.3053L58.6856 14.2061V18.7749C58.6856 19.1239 58.7803 19.3777 58.9341 19.4848C58.9499 19.4967 58.9814 19.5125 59.0169 19.5244C59.0169 19.5244 59.0919 19.5641 59.3404 19.5839C59.506 19.5998 59.648 19.5562 59.7269 19.5284C59.7387 19.5244 59.7663 19.5125 59.7782 19.5046C59.7939 19.4967 59.8097 19.4888 59.8097 19.4888C60.3264 19.1992 60.3698 17.5653 60.3698 17.0299C60.3895 15.4911 60.3895 15.0866 60.3895 13.1512V13.0441H62.2038V19.8853C62.2038 20.2462 62.334 20.5239 62.5273 20.6151C62.5273 20.6151 62.5746 20.6349 62.5825 20.6389C62.6693 20.6627 62.7324 20.6785 62.8822 20.6865C63.1504 20.6984 63.3122 20.5992 63.3122 20.5992C63.7776 20.3216 63.9117 18.9771 63.9117 18.1443V6.31393C63.9117 6.09183 63.959 5.91337 63.9984 5.75473C64.0063 5.73093 64.0103 5.70714 64.0182 5.68731C64.1207 5.30658 64.168 5.11225 63.0321 4.74738H63.0163Z" fill="white"/>
<path d="M93.6903 14.7849L93.5247 14.777L93.5996 14.6303C93.6193 14.5946 93.639 14.5589 93.6588 14.5192L93.6666 14.5033C93.7455 14.3685 93.8244 14.2257 93.785 14.1306C93.7455 14.0393 93.5878 13.96 93.3393 13.9085C92.9882 13.8331 92.7003 13.7815 92.2152 13.7617C92.2034 13.7617 92.1915 13.7617 92.1797 13.7617C91.9352 13.7617 91.7379 13.8648 91.7222 13.9323C91.7143 13.9679 91.7813 14.0393 91.947 14.1107C92.1402 14.194 92.2625 14.2654 92.298 14.3725C92.3335 14.4796 92.2743 14.5827 92.2034 14.7096L92.16 14.7849L92.1166 14.7968C91.8444 14.8603 89.4503 15.4829 89.5805 17.7118C89.6909 19.6948 91.7537 20.4324 93.0277 20.4324H93.0711C94.6961 20.4126 96.3645 19.4171 96.4157 17.5492C96.467 15.3679 94.2464 14.8048 93.6943 14.7849H93.6903ZM93.0868 19.5163C93.0868 19.5163 93.0592 19.5163 93.0474 19.5163C92.3572 19.5163 91.5368 19.0483 91.3199 17.7395C91.2449 17.2676 91.308 16.5855 91.7103 16.0739C92.0022 15.705 92.4124 15.4988 92.9291 15.4631C92.9646 15.4631 93.0001 15.4631 93.0356 15.4631C93.4458 15.4631 93.8126 15.6059 94.0926 15.8756C94.487 16.2563 94.7158 16.8789 94.704 17.5452C94.6842 18.4851 94.1676 19.5044 93.0868 19.5242V19.5163Z" fill="white"/>
<path d="M96.187 4.72344C95.41 4.46962 94.5423 4.30305 94.0847 4.31891C93.7376 4.33081 93.4537 4.41806 93.359 4.53307C93.3393 4.55687 93.3314 4.58067 93.3353 4.60049C93.3432 4.63222 93.5168 4.71154 93.572 4.7393L93.5838 4.74723C93.6233 4.76706 93.6627 4.78293 93.7021 4.80276L93.8994 4.90984C94.6251 5.29453 95.3074 5.65543 95.3074 6.40103V7.72168L95.2128 7.73358C94.6882 7.79704 94.1952 7.82876 93.7061 7.82876C93.6588 7.82876 93.6114 7.82876 93.572 7.82876H93.5168C93.2565 7.83669 93.075 7.82876 92.6806 7.7891C92.511 7.77324 92.4439 7.82083 92.4361 7.84066C92.4321 7.85652 92.4558 7.94378 92.6688 8.07069C92.9094 8.21346 93.2012 8.3364 93.4379 8.43555L93.6193 8.5109C94.0808 8.6973 94.207 8.66161 94.42 8.60212C94.5107 8.57832 94.6172 8.5466 94.7592 8.5228L95.3074 8.45141V11.6916L95.2128 11.7035C94.6961 11.7669 94.2031 11.7947 93.7061 11.7947C93.6509 11.7947 93.5996 11.7947 93.5483 11.7947H93.5089C93.3393 11.8026 93.1894 11.8026 92.9172 11.7749L92.649 11.7471L92.7437 11.6757L93.2328 11.3069C93.5168 11.0769 93.5838 10.8587 93.5404 10.7873C93.501 10.7239 93.3551 10.7398 93.1776 10.8191L93.0356 10.8865C91.7892 11.4933 89.474 12.6196 87.6399 13.0519H87.6241H87.6123C87.2179 13.0281 87.2179 12.7624 87.2179 12.4808V10.0774H87.3244L90.4285 10.018C90.9491 10.0021 91.6591 9.98226 91.6867 9.67292C91.7143 9.42307 91.5013 9.31202 91.099 9.18908L91.0004 9.15735L91.0122 9.11373L91.6354 6.81348C91.663 6.70244 91.7182 6.58346 91.7695 6.47241H91.7932L91.7734 6.46448C91.8484 6.30981 91.9233 6.14721 91.8878 6.06392C91.872 6.02823 91.8287 5.9965 91.7577 5.97667C91.4263 5.86563 91.0004 5.81407 90.389 5.81407C90.2786 5.81407 90.1524 5.85769 90.0104 5.90925C89.7816 5.99254 89.5016 6.09169 89.115 6.09169H89.0874C87.3047 6.13928 86.1648 6.15117 85.7901 6.12738C85.5929 6.12738 84.7212 6.06789 84.4293 6.01237C84.2045 5.97667 84.1296 6.0203 84.1217 6.0322C84.1217 6.0322 84.1217 6.10755 84.315 6.27015C84.5753 6.48035 84.8672 6.61915 85.2734 6.81348L85.3089 6.82935C85.6244 6.97609 85.8098 6.93246 86.0859 6.86504L86.1214 6.85711C86.2516 6.82538 86.3975 6.78969 86.5789 6.76589C87.3914 6.66675 89.3162 6.71037 89.8881 6.72623H90.0104L89.8763 9.06613V9.07803C89.8763 9.12959 89.8013 9.2327 89.7382 9.28426C89.6436 9.35168 89.5489 9.37151 89.3438 9.37151L87.0404 9.4072H87.0246C86.6144 9.26046 86.4961 9.24063 85.727 9.20494H85.6836C85.4864 9.19701 85.2813 9.18908 85.0959 9.18908C84.7764 9.18908 84.5595 9.20891 84.4175 9.2565C84.2045 9.32789 84.0586 9.46669 84.0586 9.52618C84.0586 9.54601 84.0941 9.56981 84.1493 9.58964C84.2164 9.61343 84.2992 9.63723 84.3978 9.66102H84.4136C84.595 9.71258 84.8001 9.7681 84.9736 9.85139C85.0091 9.86725 85.0407 9.88312 85.0723 9.89898H85.0801C85.3207 10.01 85.5101 10.0973 85.5101 10.5058L85.5456 12.695C85.5574 13.3969 85.727 13.8768 86.0544 14.1267C86.5198 14.4836 87.1863 14.3131 87.5453 14.2218C87.6005 14.2099 87.6478 14.1981 87.6873 14.1901C89.399 13.5833 91.1226 12.7465 92.4124 11.9057L92.4992 11.8502L92.5583 11.9375C92.582 11.9692 92.6175 11.997 92.6845 12.0327C92.937 12.1834 93.2328 12.3063 93.4734 12.4054C93.5325 12.4292 93.5878 12.453 93.639 12.4768C94.0966 12.6632 94.2267 12.6275 94.4397 12.5641C94.5304 12.5363 94.6369 12.5086 94.7789 12.4848L95.3272 12.4134V13.4604C95.3272 13.8292 95.4613 14.1068 95.6624 14.1941C95.6624 14.1941 95.8202 14.2734 96.0489 14.2734C96.3763 14.2734 96.5262 14.1743 96.5262 14.1743C96.9561 13.9284 97.1139 12.7941 97.1139 11.8026L97.1494 6.34947C97.1494 6.13928 97.1849 5.96081 97.2164 5.822L97.2282 5.76251C97.315 5.37385 97.3742 5.0883 96.2028 4.71551L96.187 4.72344Z" fill="white"/>
<path d="M110.812 14.8684C109.98 14.7613 109.735 14.9041 109.554 15.0152C109.451 15.0747 109.353 15.1341 109.203 15.1341L105.259 15.1698L105.231 15.154C104.923 14.9517 104.486 14.924 104.095 14.924C103.949 14.924 103.803 14.9279 103.645 14.9319H103.503C103.425 14.9398 103.342 14.9398 103.263 14.9438C103.03 14.9438 102.356 15.031 102.324 15.4078C102.324 15.4118 102.368 15.4633 102.774 15.6061L102.805 15.618C102.861 15.6378 102.912 15.6537 102.963 15.6735C103.507 15.8758 103.567 16.3279 103.622 16.7602V16.8078L103.981 19.7108C104.052 20.3414 104.213 20.6071 104.525 20.6071H105.101C105.393 20.6071 105.539 20.4207 105.61 19.9686L105.625 19.8774H105.716L109.909 19.8219C110.074 19.8219 110.24 19.8219 110.382 19.8219H110.394C110.82 19.8298 111.258 19.8377 111.431 19.6712C111.49 19.6156 111.518 19.5324 111.518 19.4213C111.518 19.1873 111.313 19.0168 110.867 18.8899L110.765 18.8582L111.613 15.8718C111.644 15.8004 111.676 15.7409 111.707 15.6814C111.798 15.5188 111.889 15.3483 111.83 15.2293C111.747 15.0628 111.404 14.9438 110.808 14.8684H110.812ZM109.629 15.9234L109.534 18.9018L109.467 18.9256C109.396 18.9494 109.345 18.9732 109.294 19.0009L109.282 19.0089C109.148 19.0723 109.045 19.1239 108.8 19.1239L105.681 19.1992V19.0921L105.558 15.8916L109.637 15.8123V15.9273L109.629 15.9234Z" fill="white"/>
<path d="M113.281 12.0247H113.104C112.918 12.0247 112.8 12.0723 112.634 12.1357C112.358 12.2388 111.98 12.3816 111.092 12.4014C110.658 12.4133 109.98 12.4371 109.266 12.4609C107.53 12.5244 104.912 12.6156 102.707 12.6434C102.604 12.6434 102.502 12.6434 102.399 12.6434C101.389 12.6434 100.38 12.5521 99.9852 12.4887C99.8669 12.4728 99.7604 12.4609 99.6658 12.4609C99.437 12.4609 99.3423 12.5125 99.3344 12.5363C99.3226 12.564 99.3818 12.6949 99.7565 12.9249C100.249 13.2303 100.431 13.3374 101.042 13.5714C101.681 13.8173 101.882 13.7498 102.218 13.6309C102.51 13.5278 102.872 13.4008 103.61 13.3929C104.095 13.385 104.691 13.3572 105.377 13.3215H105.397C106.316 13.2739 107.459 13.2184 108.619 13.2065L109.629 13.1946C110.938 13.1827 111.885 13.1708 112.421 13.1867C112.682 13.1867 112.958 13.2065 113.226 13.2224H113.253C114.287 13.2858 115.356 13.3493 115.407 12.7782C115.427 12.572 115.387 12.4173 115.285 12.3062C114.993 11.985 114.157 11.9969 113.273 12.0128L113.281 12.0247Z" fill="white"/>
<path d="M107.227 11.1602C107.258 11.1602 107.29 11.1602 107.321 11.1602C108.73 11.1285 111.092 10.7041 111.092 8.21352C111.092 6.07191 108.442 5.47702 108.142 5.47702H107.984L108.039 5.33028C108.063 5.26286 108.094 5.20734 108.13 5.13992C108.181 5.04474 108.225 4.96542 108.201 4.9099C108.165 4.83058 107.984 4.70763 107.317 4.56089C107.144 4.5252 106.986 4.50537 106.848 4.50537C106.576 4.50537 106.473 4.57676 106.458 4.61245C106.438 4.65608 106.509 4.76316 106.682 4.87817L106.714 4.9099C106.734 4.94162 106.809 5.09233 106.809 5.35011V5.4453L106.714 5.46116C104.651 5.75067 103.582 6.78182 103.634 8.44354C103.685 10.1489 105.503 11.1681 107.227 11.1681V11.1602ZM107.396 6.1314C107.428 6.1314 107.459 6.1314 107.491 6.1314C107.913 6.1314 108.304 6.29797 108.623 6.60732C109.092 7.06736 109.29 7.73761 109.278 8.19369C109.238 9.24069 108.631 10.367 107.392 10.367H107.361C106.115 10.3472 105.523 9.31605 105.503 8.36819C105.503 7.32515 106 6.18693 107.392 6.13537L107.396 6.1314Z" fill="white"/>
<path d="M127.788 14.5273C126.885 14.4401 126.743 14.5114 126.605 14.5828C126.506 14.6344 126.403 14.6899 126.119 14.6939C126.088 14.6939 122.203 14.8089 120.897 14.8089C120.791 14.8089 120.704 14.8089 120.637 14.8089C120.211 14.8089 119.126 14.7494 118.811 14.6939C118.543 14.6463 118.448 14.6978 118.44 14.7216C118.424 14.7573 118.472 14.8882 118.708 15.0587C119.189 15.3998 119.501 15.5307 119.927 15.7092C120.546 15.9669 120.811 15.8757 121.114 15.7686C121.292 15.7092 121.469 15.6457 121.718 15.6298L126.683 15.3641V19.8179C126.683 20.1867 126.818 20.4643 127.019 20.5516C127.019 20.5516 127.031 20.5595 127.05 20.5674C127.05 20.5674 127.05 20.5674 127.054 20.5674C127.105 20.5873 127.22 20.619 127.409 20.619C127.591 20.619 127.709 20.5952 127.78 20.5714C128.277 20.4524 128.486 19.1754 128.514 18.0729L128.557 15.6814L128.573 15.6338C128.723 15.2174 128.821 14.9437 128.73 14.801C128.64 14.6582 128.376 14.5789 127.784 14.5233L127.788 14.5273Z" fill="white"/>
<path d="M131.413 10.0576L131.29 10.0418C131.05 10.0061 130.785 9.97037 130.438 9.98623C130.119 9.99416 129.953 10.0735 129.795 10.1528C129.634 10.2282 129.492 10.3194 129.231 10.3432L128.648 10.3749V10.2718L128.667 6.28205C128.667 6.07185 128.703 5.89339 128.734 5.75458L128.742 5.71492C128.829 5.31833 128.872 5.11606 127.677 4.73534C126.936 4.49341 126.119 4.33081 125.642 4.33081C125.619 4.33081 125.595 4.33081 125.575 4.33081C125.232 4.34271 124.944 4.42996 124.849 4.54497C124.83 4.56877 124.822 4.59256 124.826 4.61239C124.834 4.64412 125.007 4.7274 125.066 4.7512C125.11 4.77103 125.153 4.79086 125.193 4.81069L125.39 4.91777C126.115 5.30246 126.802 5.66336 126.802 6.40896V13.1431C126.802 13.5159 126.94 13.7975 127.145 13.8808C127.145 13.8808 127.291 13.9522 127.555 13.9561C127.843 13.9561 128.048 13.8609 128.048 13.8609C128.407 13.6904 128.6 13.0162 128.632 11.8423L128.652 11.0134H131.247C131.72 11.0134 131.953 10.7715 131.969 10.5454C131.98 10.3432 131.815 10.1092 131.416 10.0576H131.413Z" fill="white"/>
<path d="M120.164 13.0915C121.367 13.0796 122.436 12.6711 123.094 11.9731C123.658 11.3742 123.923 10.5929 123.875 9.64904C123.769 7.49157 121.686 6.80943 120.96 6.74201L120.783 6.72615L120.878 6.57544C121.008 6.36921 121.095 6.21851 121.059 6.11539C121.035 6.04401 120.945 5.98055 120.779 5.92106C120.341 5.77432 119.71 5.7069 119.375 5.68311C119.351 5.68311 119.331 5.68311 119.312 5.68311C119.059 5.68311 118.909 5.79415 118.898 5.85761C118.89 5.88933 118.941 5.94089 119.063 5.98452C119.264 6.06384 119.45 6.14315 119.509 6.30972C119.544 6.41284 119.521 6.53181 119.442 6.67062L119.418 6.71425L119.367 6.72218C119.253 6.73804 116.551 7.17826 116.468 9.85527C116.444 10.6604 116.732 11.394 117.304 11.977C117.994 12.6869 119.024 13.0915 120.12 13.0915H120.164ZM118.416 9.89096C118.401 9.5023 118.428 8.53858 119.004 7.93179C119.308 7.61055 119.718 7.44795 120.219 7.44795C120.665 7.44795 121.039 7.60658 121.343 7.91989C121.749 8.34028 121.974 9.03432 121.946 9.77595C121.899 11.4139 121.311 12.2467 120.199 12.2467C118.625 12.2467 118.436 10.4422 118.416 9.89096Z" fill="white"/>
<path d="M79.5662 18.4616C79.4991 18.4616 79.436 18.4616 79.3729 18.4616H79.3453C79.2112 18.4616 79.0889 18.4616 78.9903 18.4616C78.9745 18.4616 78.9548 18.4616 78.939 18.4616C78.3908 18.4616 78.1226 18.6163 77.8662 18.767C77.6256 18.9058 77.3969 19.0367 76.9985 19.0367L73.5276 19.0169C73.1095 19.0169 73.1095 18.7393 73.1095 18.5568V16.8317C73.1095 15.7608 72.9951 15.4832 72.159 15.4356L71.8474 15.4158C71.4411 15.3881 71.0546 15.3643 70.6839 15.3643C70.3368 15.3643 70.0883 15.3881 69.9305 15.4317C69.7254 15.4912 69.5519 15.6379 69.5479 15.7093C69.5479 15.741 69.5953 15.7926 69.7333 15.8402C69.7609 15.8481 69.7964 15.86 69.8359 15.8719H69.8516C70.0173 15.9274 70.2973 16.0186 70.5576 16.1416C70.7982 16.2606 71.2439 16.4866 71.2636 17.3314L71.2834 18.1682C71.3149 19.4769 72.0328 19.7347 73.2555 19.7347H79.3256C80.1775 19.7347 80.6745 19.6911 80.8756 19.465C80.9821 19.3421 81.0097 19.1557 80.9742 18.8503C80.9309 18.5092 80.2367 18.4616 79.5662 18.4616Z" fill="white"/>
<path d="M67.6587 6.91677C67.9426 7.1349 68.203 7.24991 68.479 7.36889L68.4948 7.37682C68.6447 7.44027 68.7985 7.50769 68.9563 7.59494C69.3034 7.78134 69.4099 7.74168 69.615 7.6703C69.753 7.62271 69.9187 7.56322 70.1908 7.54735L74.4111 7.35699L74.3993 7.47993C74.2455 9.12183 74.135 10.1093 73.9536 10.9422C73.9102 11.1326 73.9063 11.2476 73.9418 11.2952C73.9891 11.3586 74.1626 11.3665 74.3874 11.3784H74.4821C75.0264 10.97 75.5904 9.64533 76.2018 7.34509L76.2294 7.24594C76.2925 7.00402 76.3398 6.82952 76.2649 6.72244C76.1623 6.5757 75.8152 6.48052 75.1684 6.425C74.2612 6.34568 74.0759 6.43293 73.8984 6.51621C73.7761 6.5757 73.6499 6.63122 73.358 6.64709H73.3265C72.7388 6.69071 70.6641 6.83349 69.8437 6.81366C69.4178 6.81366 68.2306 6.67881 67.8322 6.60743C67.5561 6.55587 67.4654 6.61139 67.4575 6.63916C67.4457 6.67088 67.4772 6.78193 67.6547 6.92074L67.6587 6.91677Z" fill="white"/>
<path d="M81.9603 11.1523L81.8341 11.1325C81.6171 11.1008 81.3489 11.0611 80.9821 11.077C80.6666 11.0849 80.5009 11.1841 80.3432 11.2792C80.1815 11.3744 80.0316 11.4656 79.7792 11.4656H79.4873V11.3586L79.507 6.25837C79.507 6.04817 79.5425 5.86971 79.5741 5.7309L79.5859 5.67538C79.6727 5.28671 79.7121 5.08842 78.5367 4.71165C77.7952 4.46973 76.9788 4.30713 76.4976 4.30713C76.4739 4.30713 76.4542 4.30713 76.4305 4.30713C76.0874 4.31903 75.7995 4.40628 75.7048 4.52129C75.6851 4.54508 75.6772 4.56888 75.6811 4.58871C75.689 4.62044 75.8665 4.70372 75.9217 4.72752L75.9454 4.73942C75.9809 4.75528 76.0164 4.77114 76.0479 4.78701L76.2491 4.89409C76.9748 5.27878 77.6572 5.63968 77.6572 6.38528V11.9653L74.6359 12.5563C73.8668 12.6871 72.6638 12.8537 72.4272 12.8735L72.297 12.8854L72.3128 12.7546C72.3325 12.6158 72.3483 11.426 72.3483 10.9659C72.3483 10.8152 72.372 10.6645 72.3917 10.5297C72.439 10.2203 72.4824 9.95065 72.2536 9.81581C71.8987 9.60165 71.524 9.59372 70.9047 9.57785H70.8613C70.676 9.56992 70.459 9.55009 70.2342 9.56596C69.8004 9.60958 69.4848 9.79598 69.4769 9.89116C69.4769 9.89116 69.4769 9.89513 69.4769 9.90306C69.4769 9.91496 69.4888 9.93082 69.5085 9.95065C69.5085 9.95065 69.5164 9.95858 69.5203 9.95858C69.5282 9.96651 69.54 9.97445 69.5519 9.98634C69.5519 9.98634 69.5558 9.99031 69.5598 9.99428C69.6347 10.0498 69.7688 10.1252 70.0331 10.2124C70.5458 10.3829 70.6405 10.6685 70.6405 11.1682L70.6602 13.0996L70.5655 13.1115C69.4296 13.2384 68.4554 13.3177 67.1814 13.1472C66.8067 13.0917 66.5188 13.167 66.4872 13.2424C66.4872 13.2463 66.4399 13.3693 66.854 13.6786C67.3234 14.0356 67.7415 14.2775 68.2897 14.5194C68.8892 14.7772 69.1456 14.6979 69.5361 14.5789C69.7372 14.5154 69.966 14.4441 70.2815 14.4004C71.0033 14.2933 72.936 13.9483 74.2888 13.5517L77.6532 12.5642V15.8599C77.6532 16.2327 77.7913 16.5143 77.9964 16.5976C77.9964 16.5976 78.1265 16.661 78.4026 16.665C78.6984 16.6729 78.8641 16.5936 78.8917 16.5777C79.3966 16.3358 79.4557 15.1183 79.4557 14.5591L79.4755 12.0962H81.7749C82.2482 12.0962 82.4809 11.8543 82.4967 11.6282C82.5085 11.426 82.3429 11.192 81.9445 11.1404L81.9603 11.1523Z" fill="white"/>
<path d="M145.915 4.68388C145.146 4.43403 144.385 4.27539 143.935 4.27539C143.912 4.27539 143.892 4.27539 143.868 4.27539C143.458 4.29125 143.214 4.34678 143.139 4.44196C143.115 4.47369 143.107 4.50938 143.115 4.56094C143.123 4.59267 143.296 4.67595 143.356 4.69975L143.367 4.70768C143.411 4.72751 143.446 4.74337 143.486 4.7632L143.687 4.87028C144.417 5.25894 145.111 5.62381 145.111 6.37733V20.04C145.111 20.389 145.233 20.6587 145.41 20.7618C145.41 20.7618 145.549 20.8451 145.809 20.853C146.113 20.8609 146.274 20.7737 146.274 20.7737C146.637 20.5992 146.842 19.6275 146.842 18.1879L146.882 6.24646C146.882 6.0323 146.921 5.8578 146.953 5.70313L146.964 5.6476C147.055 5.25498 147.099 5.06065 145.919 4.68388H145.915Z" fill="white"/>
<path d="M142.768 6.03222C142.07 5.8022 141.328 5.65942 140.851 5.65942C140.819 5.65942 140.788 5.65942 140.76 5.65942C140.508 5.66736 140.165 5.69512 140.058 5.82203C140.031 5.85375 140.019 5.89738 140.027 5.9529C140.035 5.98463 140.208 6.06791 140.275 6.09964L140.319 6.11947C140.319 6.11947 140.358 6.1393 140.378 6.14723L140.524 6.22655C141.289 6.63504 141.888 6.95628 141.888 7.72567V11.6242L141.782 11.6361C141.683 11.6519 141.656 11.6559 141.557 11.6678H141.502C140.701 11.7551 140.121 11.767 139.664 11.7114C139.297 11.6599 139.21 11.7114 139.194 11.7313C139.194 11.7313 139.167 11.8225 139.415 11.9811C139.794 12.2349 139.999 12.3222 140.22 12.4134L140.33 12.461C140.705 12.6196 140.796 12.5641 140.961 12.4689C141.072 12.4015 141.214 12.3222 141.458 12.2706H141.837H141.884V18.8501C141.884 19.2269 142.026 19.5164 142.235 19.5957C142.235 19.5957 142.421 19.6711 142.614 19.6631C142.953 19.6473 143.072 19.5759 143.072 19.5759C143.565 19.3062 143.624 17.6921 143.624 16.998L143.659 7.59876C143.659 7.38064 143.699 7.19027 143.73 7.05147L143.742 6.99594C143.829 6.59142 143.872 6.38916 142.768 6.03619V6.03222Z" fill="white"/>
<path d="M139.415 13.4683L139.392 13.4564C139.242 13.3851 139.052 13.2938 138.812 13.0836L138.074 12.1556L138.126 12.0882C138.824 11.1602 139.396 10.0656 139.818 9.21686C139.849 9.15737 139.881 9.09789 139.916 9.03046C140.046 8.78854 140.184 8.54265 140.102 8.37212C140.031 8.22141 139.786 8.08261 139.38 8.01915C138.311 7.84068 138.098 7.95173 137.917 8.05088C137.818 8.10244 137.715 8.15796 137.53 8.17382L135.313 8.34436C134.84 8.38798 133.621 8.25314 133.219 8.21348H133.203C132.967 8.18175 132.821 8.27297 132.805 8.31263C132.797 8.33643 132.832 8.43557 133.101 8.59025C133.46 8.80044 134.335 9.24066 134.536 9.31205C134.883 9.44689 135.045 9.3755 135.274 9.27635C135.432 9.20497 135.905 9.12565 136.169 9.09392H136.177C136.418 9.07409 137.072 9.0146 137.869 8.89959L138.051 8.87579L137.988 9.04633C137.636 10.0338 136.658 12.0961 135.534 13.4326C133.917 15.3561 133.038 16.07 132.335 16.5895C132.103 16.764 132.079 16.8434 132.079 16.8552C132.087 16.8632 132.158 16.9306 132.6 16.9465C133.258 16.7085 134.221 16.0898 135.167 15.2966C136.362 14.3091 136.828 13.853 137.55 12.9805L137.648 12.8616L137.684 12.921L139.175 15.3799C139.482 15.8915 139.751 16.3317 140.244 16.0581C140.307 16.0264 140.39 15.955 140.437 15.8003C140.516 15.5386 140.492 15.0032 139.932 13.9522C139.758 13.623 139.613 13.5556 139.407 13.4604L139.415 13.4683Z" fill="white"/>
</g>
<defs>
<clipPath id="clip0_719_1115">
<rect width="147" height="61" fill="white"/>
</clipPath>
</defs>
</svg>
